<svg xmlns="http://www.w3.org/2000/svg" xmlns:xlink="http://www.w3.org/1999/xlink" width="500" zoomAndPan="magnify" viewBox="0 0 375 374.999991" height="500" preserveAspectRatio="xMidYMid meet" version="1.0"><path fill="#fe6075" d="M 39.246094 0 L 335.753906 0 C 337.042969 0 338.324219 0.0625 339.601562 0.1875 C 340.882812 0.316406 342.152344 0.503906 343.410156 0.753906 C 344.671875 1.003906 345.917969 1.316406 347.148438 1.691406 C 348.378906 2.0625 349.585938 2.496094 350.773438 2.988281 C 351.960938 3.480469 353.121094 4.027344 354.253906 4.632812 C 355.390625 5.238281 356.488281 5.898438 357.558594 6.613281 C 358.628906 7.328125 359.660156 8.09375 360.652344 8.90625 C 361.644531 9.722656 362.597656 10.585938 363.503906 11.496094 C 364.414062 12.402344 365.277344 13.355469 366.09375 14.347656 C 366.90625 15.339844 367.671875 16.371094 368.386719 17.441406 C 369.101562 18.511719 369.761719 19.609375 370.367188 20.746094 C 370.972656 21.878906 371.519531 23.039062 372.011719 24.226562 C 372.503906 25.414062 372.9375 26.621094 373.308594 27.851562 C 373.683594 29.082031 373.996094 30.328125 374.246094 31.589844 C 374.496094 32.847656 374.683594 34.117188 374.8125 35.398438 C 374.9375 36.675781 375 37.957031 375 39.246094 L 375 335.753906 C 375 337.042969 374.9375 338.324219 374.8125 339.601562 C 374.683594 340.882812 374.496094 342.152344 374.246094 343.410156 C 373.996094 344.671875 373.683594 345.917969 373.308594 347.148438 C 372.9375 348.378906 372.503906 349.585938 372.011719 350.773438 C 371.519531 351.960938 370.972656 353.121094 370.367188 354.253906 C 369.761719 355.390625 369.101562 356.488281 368.386719 357.558594 C 367.671875 358.628906 366.90625 359.660156 366.09375 360.652344 C 365.277344 361.644531 364.414062 362.597656 363.503906 363.503906 C 362.597656 364.414062 361.644531 365.277344 360.652344 366.09375 C 359.660156 366.90625 358.628906 367.671875 357.558594 368.386719 C 356.488281 369.101562 355.390625 369.761719 354.253906 370.367188 C 353.121094 370.972656 351.960938 371.519531 350.773438 372.011719 C 349.585938 372.503906 348.378906 372.9375 347.148438 373.308594 C 345.917969 373.683594 344.671875 373.996094 343.410156 374.246094 C 342.152344 374.496094 340.882812 374.683594 339.601562 374.8125 C 338.324219 374.9375 337.042969 375 335.753906 375 L 39.246094 375 C 37.957031 375 36.675781 374.9375 35.398438 374.8125 C 34.117188 374.683594 32.847656 374.496094 31.589844 374.246094 C 30.328125 373.996094 29.082031 373.683594 27.851562 373.308594 C 26.621094 372.9375 25.414062 372.503906 24.226562 372.011719 C 23.039062 371.519531 21.878906 370.972656 20.746094 370.367188 C 19.609375 369.761719 18.511719 369.101562 17.441406 368.386719 C 16.371094 367.671875 15.339844 366.90625 14.347656 366.09375 C 13.355469 365.277344 12.402344 364.414062 11.496094 363.503906 C 10.585938 362.597656 9.722656 361.644531 8.90625 360.652344 C 8.09375 359.660156 7.328125 358.628906 6.613281 357.558594 C 5.898438 356.488281 5.238281 355.390625 4.632812 354.253906 C 4.027344 353.121094 3.480469 351.960938 2.988281 350.773438 C 2.496094 349.585938 2.0625 348.378906 1.691406 347.148438 C 1.316406 345.917969 1.003906 344.671875 0.753906 343.410156 C 0.503906 342.152344 0.316406 340.882812 0.1875 339.601562 C 0.0625 338.324219 0 337.042969 0 335.753906 L 0 39.246094 C 0 37.957031 0.0625 36.675781 0.1875 35.398438 C 0.316406 34.117188 0.503906 32.847656 0.753906 31.589844 C 1.003906 30.328125 1.316406 29.082031 1.691406 27.851562 C 2.0625 26.621094 2.496094 25.414062 2.988281 24.226562 C 3.480469 23.039062 4.027344 21.878906 4.632812 20.746094 C 5.238281 19.609375 5.898438 18.511719 6.613281 17.441406 C 7.328125 16.371094 8.09375 15.339844 8.90625 14.347656 C 9.722656 13.355469 10.585938 12.402344 11.496094 11.496094 C 12.402344 10.585938 13.355469 9.722656 14.347656 8.90625 C 15.339844 8.09375 16.371094 7.328125 17.441406 6.613281 C 18.511719 5.898438 19.609375 5.238281 20.746094 4.632812 C 21.878906 4.027344 23.039062 3.480469 24.226562 2.988281 C 25.414062 2.496094 26.621094 2.0625 27.851562 1.691406 C 29.082031 1.316406 30.328125 1.003906 31.589844 0.753906 C 32.847656 0.503906 34.117188 0.316406 35.398438 0.1875 C 36.675781 0.0625 37.957031 0 39.246094 0 Z M 39.246094 0 " fill-opacity="1" fill-rule="nonzero"/><path fill="#ffffff" d="M 88.710938 78.546875 C 89.410156 77.914062 90.164062 77.355469 90.976562 76.871094 C 91.785156 76.386719 92.636719 75.984375 93.523438 75.664062 C 94.414062 75.347656 95.324219 75.121094 96.257812 74.980469 C 97.191406 74.84375 98.132812 74.796875 99.074219 74.84375 C 100.019531 74.890625 100.945312 75.03125 101.863281 75.257812 C 102.777344 75.488281 103.664062 75.804688 104.515625 76.210938 C 105.371094 76.613281 106.175781 77.097656 106.933594 77.660156 C 107.691406 78.222656 108.386719 78.855469 109.023438 79.554688 L 286.859375 275.921875 C 287.492188 276.621094 288.050781 277.375 288.535156 278.1875 C 289.023438 278.996094 289.421875 279.847656 289.742188 280.734375 C 290.058594 281.625 290.285156 282.535156 290.425781 283.46875 C 290.5625 284.402344 290.609375 285.34375 290.5625 286.285156 C 290.515625 287.226562 290.378906 288.15625 290.148438 289.074219 C 289.917969 289.988281 289.601562 290.875 289.195312 291.726562 C 288.792969 292.582031 288.308594 293.386719 287.746094 294.144531 C 287.183594 294.902344 286.550781 295.597656 285.851562 296.234375 C 285.152344 296.867188 284.398438 297.425781 283.589844 297.910156 C 282.777344 298.394531 281.929688 298.796875 281.039062 299.113281 C 280.148438 299.433594 279.238281 299.660156 278.304688 299.800781 C 277.371094 299.9375 276.433594 299.984375 275.488281 299.9375 C 274.546875 299.890625 273.617188 299.75 272.699219 299.519531 C 271.785156 299.292969 270.898438 298.976562 270.046875 298.570312 C 269.195312 298.167969 268.386719 297.683594 267.628906 297.121094 C 266.871094 296.558594 266.175781 295.925781 265.542969 295.226562 L 87.707031 98.859375 C 87.070312 98.160156 86.511719 97.40625 86.027344 96.59375 C 85.542969 95.785156 85.140625 94.933594 84.824219 94.046875 C 84.503906 93.15625 84.277344 92.246094 84.136719 91.3125 C 84 90.378906 83.953125 89.4375 84 88.496094 C 84.046875 87.550781 84.1875 86.625 84.417969 85.707031 C 84.644531 84.792969 84.960938 83.90625 85.367188 83.054688 C 85.769531 82.199219 86.253906 81.394531 86.816406 80.636719 C 87.378906 79.878906 88.011719 79.183594 88.710938 78.546875 Z M 88.710938 78.546875 " fill-opacity="1" fill-rule="nonzero"/><path fill="#ffffff" d="M 285.851562 78.546875 C 285.152344 77.914062 284.398438 77.355469 283.589844 76.871094 C 282.777344 76.382812 281.929688 75.984375 281.039062 75.664062 C 280.148438 75.347656 279.238281 75.121094 278.304688 74.980469 C 277.371094 74.84375 276.433594 74.796875 275.488281 74.84375 C 274.546875 74.890625 273.617188 75.027344 272.699219 75.257812 C 271.785156 75.488281 270.898438 75.804688 270.046875 76.210938 C 269.195312 76.613281 268.386719 77.097656 267.628906 77.660156 C 266.871094 78.222656 266.175781 78.855469 265.542969 79.554688 L 87.707031 275.921875 C 87.070312 276.621094 86.511719 277.375 86.027344 278.1875 C 85.542969 278.996094 85.140625 279.84375 84.824219 280.734375 C 84.503906 281.625 84.277344 282.535156 84.136719 283.46875 C 84 284.402344 83.953125 285.339844 84 286.285156 C 84.046875 287.226562 84.1875 288.15625 84.417969 289.074219 C 84.644531 289.988281 84.960938 290.875 85.367188 291.726562 C 85.769531 292.582031 86.253906 293.386719 86.816406 294.144531 C 87.378906 294.902344 88.011719 295.597656 88.710938 296.230469 C 89.410156 296.867188 90.164062 297.425781 90.976562 297.910156 C 91.785156 298.394531 92.636719 298.796875 93.523438 299.113281 C 94.414062 299.433594 95.324219 299.660156 96.257812 299.796875 C 97.191406 299.9375 98.132812 299.980469 99.074219 299.9375 C 100.019531 299.890625 100.945312 299.75 101.863281 299.519531 C 102.777344 299.292969 103.664062 298.972656 104.515625 298.570312 C 105.371094 298.167969 106.175781 297.683594 106.933594 297.121094 C 107.691406 296.558594 108.386719 295.925781 109.023438 295.226562 L 286.859375 98.859375 C 287.492188 98.160156 288.050781 97.402344 288.535156 96.59375 C 289.023438 95.785156 289.421875 94.933594 289.742188 94.046875 C 290.058594 93.15625 290.285156 92.246094 290.425781 91.3125 C 290.5625 90.375 290.609375 89.4375 290.5625 88.496094 C 290.515625 87.550781 290.378906 86.621094 290.148438 85.707031 C 289.917969 84.789062 289.601562 83.90625 289.195312 83.054688 C 288.792969 82.199219 288.308594 81.394531 287.746094 80.636719 C 287.183594 79.878906 286.550781 79.179688 285.851562 78.546875 Z M 285.851562 78.546875 " fill-opacity="1" fill-rule="nonzero"/></svg>