<svg xmlns="http://www.w3.org/2000/svg" xmlns:xlink="http://www.w3.org/1999/xlink" width="1080" zoomAndPan="magnify" viewBox="0 0 810 809.999993" height="1080" preserveAspectRatio="xMidYMid meet" version="1.0"><defs><clipPath id="673b3be9cb"><path d="M 236 241 L 798.128906 241 L 798.128906 769.871094 L 236 769.871094 Z M 236 241 " clip-rule="nonzero"/></clipPath><clipPath id="863bcc670c"><path d="M 12.128906 40.121094 L 686 40.121094 L 686 658 L 12.128906 658 Z M 12.128906 40.121094 " clip-rule="nonzero"/></clipPath></defs><g clip-path="url(#673b3be9cb)"><path fill="#444444" d="M 741.988281 241.675781 L 741.988281 461.121094 C 741.988281 463.417969 741.929688 465.710938 741.816406 468.003906 C 741.703125 470.296875 741.535156 472.585938 741.3125 474.871094 C 741.085938 477.15625 740.804688 479.4375 740.46875 481.707031 C 740.128906 483.980469 739.738281 486.242188 739.289062 488.492188 C 738.839844 490.746094 738.339844 492.984375 737.78125 495.210938 C 737.222656 497.441406 736.609375 499.652344 735.941406 501.847656 C 735.277344 504.046875 734.554688 506.226562 733.78125 508.386719 C 733.007812 510.550781 732.179688 512.691406 731.300781 514.8125 C 730.421875 516.933594 729.492188 519.035156 728.511719 521.109375 C 727.527344 523.183594 726.496094 525.234375 725.414062 527.261719 C 724.332031 529.285156 723.199219 531.285156 722.019531 533.253906 C 720.835938 535.222656 719.609375 537.160156 718.332031 539.070312 C 717.054688 540.980469 715.734375 542.859375 714.363281 544.703125 C 712.996094 546.546875 711.585938 548.355469 710.125 550.132812 C 708.667969 551.90625 707.167969 553.644531 705.628906 555.347656 C 704.085938 557.046875 702.5 558.710938 700.875 560.332031 C 699.253906 561.957031 697.589844 563.539062 695.886719 565.082031 C 694.183594 566.625 692.445312 568.125 690.671875 569.582031 C 688.894531 571.035156 687.085938 572.449219 685.238281 573.816406 C 683.394531 575.183594 681.515625 576.507812 679.609375 577.78125 C 677.699219 579.058594 675.757812 580.285156 673.789062 581.46875 C 671.816406 582.648438 669.820312 583.777344 667.792969 584.863281 C 665.765625 585.945312 663.714844 586.976562 661.640625 587.957031 C 659.5625 588.941406 657.464844 589.871094 655.339844 590.75 C 653.21875 591.628906 651.078125 592.453125 648.914062 593.226562 C 646.75 594 644.570312 594.722656 642.371094 595.386719 C 640.175781 596.054688 637.960938 596.667969 635.734375 597.222656 C 633.503906 597.78125 631.265625 598.285156 629.011719 598.734375 C 626.757812 599.179688 624.496094 599.574219 622.222656 599.910156 C 619.953125 600.246094 617.671875 600.527344 615.386719 600.753906 C 613.101562 600.976562 610.8125 601.148438 608.515625 601.261719 C 606.222656 601.371094 603.925781 601.429688 601.628906 601.429688 L 236.699219 601.429688 L 236.699219 629.492188 C 236.703125 630.867188 236.742188 632.242188 236.8125 633.617188 C 236.886719 634.992188 236.992188 636.363281 237.128906 637.734375 C 237.269531 639.105469 237.441406 640.46875 237.644531 641.832031 C 237.851562 643.191406 238.089844 644.546875 238.359375 645.898438 C 238.632812 647.246094 238.9375 648.589844 239.273438 649.921875 C 239.613281 651.257812 239.980469 652.582031 240.382812 653.902344 C 240.785156 655.21875 241.21875 656.523438 241.6875 657.820312 C 242.152344 659.113281 242.648438 660.398438 243.179688 661.667969 C 243.707031 662.9375 244.265625 664.195312 244.855469 665.441406 C 245.449219 666.683594 246.066406 667.914062 246.71875 669.125 C 247.371094 670.339844 248.050781 671.535156 248.757812 672.714844 C 249.46875 673.894531 250.203125 675.058594 250.96875 676.203125 C 251.738281 677.347656 252.53125 678.472656 253.351562 679.578125 C 254.171875 680.679688 255.019531 681.765625 255.894531 682.828125 C 256.765625 683.894531 257.667969 684.933594 258.59375 685.957031 C 259.515625 686.976562 260.464844 687.972656 261.441406 688.945312 C 262.414062 689.917969 263.410156 690.867188 264.429688 691.792969 C 265.453125 692.71875 266.492188 693.617188 267.558594 694.488281 C 268.621094 695.363281 269.707031 696.210938 270.8125 697.03125 C 271.917969 697.851562 273.042969 698.644531 274.1875 699.410156 C 275.332031 700.175781 276.496094 700.914062 277.675781 701.621094 C 278.855469 702.332031 280.050781 703.011719 281.265625 703.660156 C 282.480469 704.3125 283.710938 704.933594 284.953125 705.523438 C 286.199219 706.113281 287.457031 706.671875 288.726562 707.199219 C 290 707.730469 291.28125 708.226562 292.578125 708.691406 C 293.875 709.160156 295.179688 709.59375 296.496094 709.996094 C 297.8125 710.398438 299.140625 710.765625 300.476562 711.105469 C 301.808594 711.441406 303.152344 711.746094 304.503906 712.015625 C 305.851562 712.289062 307.210938 712.527344 308.570312 712.730469 C 309.933594 712.9375 311.296875 713.109375 312.667969 713.246094 C 314.039062 713.386719 315.410156 713.492188 316.785156 713.5625 C 318.160156 713.632812 319.539062 713.671875 320.914062 713.675781 L 644.578125 713.675781 C 649.027344 713.734375 653.238281 714.761719 657.210938 716.761719 L 757.425781 766.714844 C 761.398438 768.714844 765.609375 769.742188 770.058594 769.800781 C 772.683594 769.796875 775.261719 769.4375 777.789062 768.722656 C 780.316406 768.007812 782.699219 766.964844 784.9375 765.589844 C 785.941406 764.960938 786.90625 764.269531 787.828125 763.519531 C 788.746094 762.765625 789.613281 761.960938 790.429688 761.097656 C 791.25 760.238281 792.007812 759.328125 792.710938 758.371094 C 793.410156 757.410156 794.050781 756.414062 794.625 755.375 C 795.199219 754.332031 795.707031 753.261719 796.144531 752.160156 C 796.582031 751.054688 796.949219 749.929688 797.246094 748.777344 C 797.542969 747.628906 797.761719 746.464844 797.910156 745.285156 C 798.058594 744.109375 798.132812 742.925781 798.128906 741.738281 L 798.128906 320.8125 C 798.125 318.65625 798.035156 316.503906 797.863281 314.355469 C 797.691406 312.207031 797.4375 310.070312 797.101562 307.941406 C 796.765625 305.8125 796.351562 303.699219 795.851562 301.601562 C 795.355469 299.503906 794.777344 297.429688 794.121094 295.378906 C 793.460938 293.324219 792.726562 291.300781 791.914062 289.304688 C 791.101562 287.308594 790.214844 285.347656 789.25 283.417969 C 788.285156 281.492188 787.25 279.605469 786.140625 277.753906 C 785.03125 275.90625 783.855469 274.105469 782.609375 272.347656 C 781.359375 270.589844 780.046875 268.882812 778.667969 267.222656 C 777.292969 265.566406 775.851562 263.964844 774.351562 262.417969 C 772.847656 260.871094 771.289062 259.386719 769.675781 257.957031 C 768.058594 256.53125 766.390625 255.167969 764.671875 253.871094 C 762.949219 252.570312 761.183594 251.339844 759.367188 250.175781 C 757.554688 249.015625 755.695312 247.921875 753.796875 246.902344 C 751.898438 245.878906 749.964844 244.933594 747.992188 244.0625 C 746.019531 243.191406 744.019531 242.394531 741.988281 241.675781 Z M 741.988281 241.675781 " fill-opacity="1" fill-rule="nonzero"/></g><g clip-path="url(#863bcc670c)"><path fill="#444444" d="M 685.84375 461.121094 L 685.84375 124.378906 C 685.84375 123 685.808594 121.625 685.742188 120.246094 C 685.675781 118.871094 685.574219 117.496094 685.4375 116.125 C 685.304688 114.753906 685.132812 113.386719 684.933594 112.027344 C 684.730469 110.664062 684.496094 109.304688 684.226562 107.953125 C 683.957031 106.601562 683.65625 105.257812 683.320312 103.921875 C 682.984375 102.585938 682.617188 101.257812 682.21875 99.941406 C 681.816406 98.621094 681.386719 97.3125 680.921875 96.015625 C 680.457031 94.71875 679.960938 93.433594 679.433594 92.160156 C 678.90625 90.890625 678.347656 89.628906 677.757812 88.382812 C 677.167969 87.140625 676.550781 85.910156 675.898438 84.695312 C 675.25 83.480469 674.570312 82.28125 673.863281 81.097656 C 673.152344 79.917969 672.417969 78.753906 671.652344 77.605469 C 670.886719 76.460938 670.089844 75.335938 669.269531 74.230469 C 668.449219 73.121094 667.601562 72.035156 666.726562 70.972656 C 665.851562 69.90625 664.953125 68.863281 664.027344 67.84375 C 663.101562 66.820312 662.152344 65.824219 661.175781 64.851562 C 660.203125 63.875 659.207031 62.925781 658.183594 62 C 657.164062 61.074219 656.121094 60.175781 655.054688 59.300781 C 653.988281 58.429688 652.902344 57.582031 651.796875 56.761719 C 650.6875 55.9375 649.5625 55.144531 648.417969 54.378906 C 647.269531 53.617188 646.105469 52.878906 644.925781 52.171875 C 643.742188 51.460938 642.542969 50.78125 641.328125 50.132812 C 640.113281 49.484375 638.882812 48.863281 637.636719 48.277344 C 636.390625 47.6875 635.128906 47.128906 633.855469 46.601562 C 632.582031 46.074219 631.296875 45.578125 630 45.113281 C 628.703125 44.648438 627.394531 44.21875 626.074219 43.816406 C 624.757812 43.417969 623.429688 43.050781 622.089844 42.714844 C 620.753906 42.382812 619.410156 42.078125 618.058594 41.808594 C 616.707031 41.542969 615.347656 41.304688 613.984375 41.105469 C 612.621094 40.902344 611.253906 40.734375 609.882812 40.597656 C 608.511719 40.464844 607.136719 40.363281 605.761719 40.292969 C 604.386719 40.226562 603.007812 40.191406 601.628906 40.191406 L 96.34375 40.191406 C 94.964844 40.191406 93.589844 40.226562 92.210938 40.292969 C 90.835938 40.363281 89.460938 40.464844 88.089844 40.597656 C 86.71875 40.734375 85.351562 40.902344 83.988281 41.105469 C 82.625 41.304688 81.265625 41.542969 79.914062 41.808594 C 78.5625 42.078125 77.21875 42.382812 75.882812 42.714844 C 74.542969 43.050781 73.214844 43.417969 71.898438 43.816406 C 70.578125 44.21875 69.269531 44.648438 67.972656 45.113281 C 66.675781 45.578125 65.390625 46.074219 64.117188 46.601562 C 62.84375 47.128906 61.582031 47.6875 60.335938 48.277344 C 59.089844 48.863281 57.859375 49.484375 56.644531 50.132812 C 55.429688 50.78125 54.230469 51.460938 53.046875 52.171875 C 51.867188 52.878906 50.703125 53.617188 49.554688 54.378906 C 48.410156 55.144531 47.285156 55.9375 46.175781 56.761719 C 45.070312 57.582031 43.984375 58.429688 42.917969 59.300781 C 41.851562 60.175781 40.808594 61.074219 39.789062 62 C 38.765625 62.925781 37.769531 63.875 36.796875 64.851562 C 35.820312 65.824219 34.871094 66.820312 33.945312 67.84375 C 33.019531 68.863281 32.121094 69.90625 31.246094 70.972656 C 30.371094 72.035156 29.523438 73.121094 28.703125 74.230469 C 27.882812 75.335938 27.085938 76.460938 26.320312 77.605469 C 25.554688 78.753906 24.820312 79.917969 24.109375 81.097656 C 23.402344 82.28125 22.722656 83.480469 22.074219 84.695312 C 21.421875 85.910156 20.804688 87.140625 20.214844 88.382812 C 19.625 89.628906 19.066406 90.890625 18.539062 92.160156 C 18.011719 93.433594 17.515625 94.71875 17.050781 96.015625 C 16.585938 97.3125 16.15625 98.621094 15.753906 99.941406 C 15.355469 101.257812 14.988281 102.585938 14.652344 103.921875 C 14.316406 105.257812 14.015625 106.601562 13.746094 107.953125 C 13.480469 109.304688 13.242188 110.664062 13.039062 112.027344 C 12.839844 113.386719 12.667969 114.753906 12.535156 116.125 C 12.398438 117.496094 12.296875 118.871094 12.230469 120.246094 C 12.164062 121.625 12.128906 123 12.128906 124.378906 L 12.128906 629.492188 C 12.128906 630.804688 12.21875 632.113281 12.402344 633.417969 C 12.585938 634.71875 12.863281 636.003906 13.226562 637.265625 C 13.589844 638.53125 14.039062 639.765625 14.578125 640.964844 C 15.117188 642.164062 15.734375 643.320312 16.433594 644.4375 C 17.136719 645.550781 17.910156 646.609375 18.757812 647.613281 C 19.609375 648.617188 20.523438 649.558594 21.503906 650.433594 C 22.488281 651.308594 23.523438 652.113281 24.621094 652.84375 C 25.714844 653.574219 26.855469 654.222656 28.039062 654.792969 C 29.226562 655.363281 30.445312 655.847656 31.699219 656.246094 C 32.953125 656.644531 34.230469 656.953125 35.527344 657.171875 C 36.824219 657.390625 38.132812 657.515625 39.449219 657.554688 C 40.761719 657.589844 42.074219 657.53125 43.382812 657.382812 C 44.6875 657.234375 45.980469 656.992188 47.253906 656.664062 C 48.527344 656.332031 49.769531 655.914062 50.984375 655.410156 C 52.199219 654.902344 53.375 654.316406 54.507812 653.644531 C 55.636719 652.976562 56.71875 652.230469 57.746094 651.40625 L 182.71875 551.449219 C 185.203125 549.464844 187.941406 547.945312 190.941406 546.894531 C 193.941406 545.839844 197.027344 545.308594 200.207031 545.304688 L 601.628906 545.304688 C 603.007812 545.304688 604.386719 545.273438 605.761719 545.203125 C 607.136719 545.136719 608.511719 545.035156 609.882812 544.898438 C 611.253906 544.765625 612.621094 544.597656 613.984375 544.394531 C 615.347656 544.191406 616.707031 543.957031 618.058594 543.6875 C 619.410156 543.417969 620.753906 543.117188 622.089844 542.78125 C 623.429688 542.449219 624.757812 542.082031 626.074219 541.679688 C 627.394531 541.28125 628.703125 540.847656 630 540.382812 C 631.296875 539.921875 632.582031 539.425781 633.855469 538.898438 C 635.128906 538.371094 636.390625 537.8125 637.636719 537.222656 C 638.882812 536.632812 640.113281 536.015625 641.328125 535.363281 C 642.542969 534.714844 643.742188 534.035156 644.925781 533.328125 C 646.105469 532.621094 647.269531 531.882812 648.417969 531.117188 C 649.5625 530.351562 650.6875 529.558594 651.796875 528.738281 C 652.902344 527.917969 653.988281 527.070312 655.054688 526.195312 C 656.121094 525.320312 657.164062 524.421875 658.183594 523.496094 C 659.207031 522.570312 660.203125 521.621094 661.175781 520.648438 C 662.152344 519.671875 663.101562 518.675781 664.027344 517.65625 C 664.953125 516.632812 665.851562 515.589844 666.726562 514.527344 C 667.601562 513.460938 668.449219 512.375 669.269531 511.269531 C 670.089844 510.164062 670.886719 509.035156 671.652344 507.890625 C 672.417969 506.746094 673.152344 505.582031 673.863281 504.398438 C 674.570312 503.21875 675.25 502.019531 675.898438 500.804688 C 676.550781 499.589844 677.167969 498.359375 677.757812 497.113281 C 678.347656 495.867188 678.90625 494.609375 679.433594 493.335938 C 679.960938 492.0625 680.457031 490.777344 680.921875 489.480469 C 681.386719 488.183594 681.816406 486.875 682.21875 485.558594 C 682.617188 484.238281 682.984375 482.910156 683.320312 481.574219 C 683.65625 480.238281 683.957031 478.894531 684.226562 477.542969 C 684.496094 476.191406 684.730469 474.835938 684.933594 473.472656 C 685.132812 472.109375 685.304688 470.742188 685.4375 469.371094 C 685.574219 468 685.675781 466.625 685.742188 465.25 C 685.808594 463.875 685.84375 462.496094 685.84375 461.121094 Z M 374.8125 415.660156 C 374.183594 417.402344 373.371094 419.054688 372.375 420.617188 C 371.382812 422.179688 370.230469 423.613281 368.921875 424.921875 C 367.609375 426.234375 366.175781 427.382812 364.609375 428.378906 C 363.046875 429.371094 361.394531 430.183594 359.652344 430.8125 C 357.972656 431.554688 356.234375 432.113281 354.4375 432.488281 C 352.640625 432.867188 350.824219 433.058594 348.988281 433.058594 C 347.148438 433.058594 345.332031 432.867188 343.535156 432.488281 C 341.738281 432.113281 340 431.554688 338.320312 430.8125 C 336.578125 430.183594 334.925781 429.371094 333.363281 428.378906 C 331.796875 427.382812 330.363281 426.234375 329.050781 424.921875 C 327.742188 423.613281 326.589844 422.179688 325.597656 420.617188 C 324.601562 419.054688 323.792969 417.402344 323.160156 415.660156 C 321.707031 412.253906 320.960938 408.699219 320.914062 404.996094 C 320.941406 403.15625 321.140625 401.332031 321.507812 399.527344 C 321.875 397.726562 322.40625 395.972656 323.105469 394.265625 C 323.800781 392.5625 324.648438 390.9375 325.648438 389.390625 C 326.652344 387.84375 327.785156 386.40625 329.054688 385.074219 C 331.804688 382.578125 334.894531 380.613281 338.320312 379.179688 C 339.992188 378.417969 341.730469 377.839844 343.527344 377.449219 C 345.328125 377.058594 347.144531 376.863281 348.988281 376.863281 C 350.828125 376.863281 352.644531 377.058594 354.445312 377.449219 C 356.242188 377.839844 357.980469 378.417969 359.652344 379.179688 C 363.078125 380.613281 366.167969 382.578125 368.917969 385.074219 C 370.199219 386.398438 371.34375 387.832031 372.347656 389.375 C 373.355469 390.921875 374.207031 392.546875 374.90625 394.25 C 375.601562 395.957031 376.132812 397.714844 376.496094 399.519531 C 376.855469 401.328125 377.042969 403.152344 377.058594 404.996094 C 377.011719 408.699219 376.265625 412.253906 374.8125 415.660156 Z M 380.171875 317.445312 C 379.410156 317.902344 378.722656 318.453125 378.109375 319.097656 C 377.496094 319.746094 376.980469 320.460938 376.5625 321.246094 C 376.144531 322.03125 375.839844 322.859375 375.644531 323.730469 C 375.453125 324.597656 375.382812 325.476562 375.429688 326.367188 C 375.429688 327.285156 375.382812 328.203125 375.292969 329.117188 C 375.203125 330.03125 375.070312 330.941406 374.890625 331.839844 C 374.710938 332.742188 374.488281 333.632812 374.222656 334.511719 C 373.953125 335.390625 373.644531 336.257812 373.292969 337.105469 C 372.941406 337.953125 372.546875 338.785156 372.113281 339.59375 C 371.683594 340.40625 371.210938 341.191406 370.699219 341.957031 C 370.1875 342.722656 369.640625 343.457031 369.058594 344.167969 C 368.472656 344.878906 367.859375 345.558594 367.207031 346.210938 C 366.558594 346.859375 365.878906 347.476562 365.167969 348.058594 C 364.457031 348.640625 363.71875 349.1875 362.953125 349.699219 C 362.191406 350.210938 361.402344 350.683594 360.589844 351.117188 C 359.78125 351.546875 358.949219 351.941406 358.101562 352.292969 C 357.25 352.644531 356.386719 352.953125 355.507812 353.21875 C 354.628906 353.488281 353.738281 353.710938 352.835938 353.890625 C 351.933594 354.070312 351.023438 354.203125 350.109375 354.292969 C 349.195312 354.382812 348.277344 354.429688 347.359375 354.429688 C 346.4375 354.429688 345.523438 354.382812 344.605469 354.292969 C 343.691406 354.203125 342.785156 354.070312 341.882812 353.890625 C 340.980469 353.710938 340.089844 353.488281 339.210938 353.21875 C 338.328125 352.953125 337.464844 352.644531 336.617188 352.292969 C 335.765625 351.941406 334.9375 351.546875 334.125 351.117188 C 333.316406 350.683594 332.527344 350.210938 331.761719 349.699219 C 331 349.1875 330.261719 348.640625 329.550781 348.058594 C 328.839844 347.476562 328.160156 346.859375 327.507812 346.210938 C 326.859375 345.558594 326.242188 344.878906 325.660156 344.167969 C 325.074219 343.457031 324.527344 342.722656 324.019531 341.957031 C 323.507812 341.191406 323.035156 340.40625 322.601562 339.59375 C 322.167969 338.785156 321.777344 337.953125 321.421875 337.105469 C 321.070312 336.257812 320.761719 335.390625 320.496094 334.511719 C 320.230469 333.632812 320.003906 332.742188 319.828125 331.839844 C 319.648438 330.941406 319.511719 330.03125 319.421875 329.117188 C 319.332031 328.203125 319.285156 327.285156 319.285156 326.367188 C 319.261719 324.769531 319.296875 323.171875 319.390625 321.574219 C 319.484375 319.980469 319.636719 318.390625 319.851562 316.804688 C 320.0625 315.21875 320.328125 313.644531 320.65625 312.078125 C 320.984375 310.515625 321.367188 308.964844 321.808594 307.425781 C 322.25 305.890625 322.75 304.371094 323.300781 302.871094 C 323.855469 301.371094 324.460938 299.894531 325.125 298.4375 C 325.785156 296.984375 326.5 295.554688 327.269531 294.152344 C 328.035156 292.75 328.855469 291.375 329.722656 290.035156 C 330.589844 288.691406 331.507812 287.382812 332.472656 286.105469 C 333.4375 284.832031 334.449219 283.59375 335.503906 282.394531 C 336.558594 281.191406 337.660156 280.03125 338.800781 278.914062 C 339.941406 277.792969 341.121094 276.71875 342.34375 275.683594 C 343.5625 274.652344 344.820312 273.664062 346.113281 272.722656 C 347.40625 271.785156 348.734375 270.894531 350.09375 270.050781 C 351.453125 269.207031 352.839844 268.414062 354.257812 267.675781 C 355.675781 266.933594 357.117188 266.246094 358.585938 265.613281 C 360.054688 265.003906 361.460938 264.285156 362.8125 263.449219 C 364.164062 262.617188 365.4375 261.683594 366.640625 260.644531 C 367.839844 259.605469 368.953125 258.480469 369.972656 257.261719 C 370.992188 256.046875 371.910156 254.757812 372.722656 253.394531 C 373.535156 252.035156 374.238281 250.613281 374.824219 249.140625 C 375.410156 247.664062 375.875 246.152344 376.21875 244.605469 C 376.5625 243.054688 376.78125 241.488281 376.875 239.90625 C 376.96875 238.320312 376.933594 236.738281 376.773438 235.160156 C 376.613281 233.582031 376.328125 232.023438 375.917969 230.492188 C 375.507812 228.957031 374.980469 227.46875 374.328125 226.019531 C 373.679688 224.570312 372.921875 223.183594 372.050781 221.855469 C 371.179688 220.53125 370.207031 219.28125 369.136719 218.109375 C 368.066406 216.9375 366.910156 215.859375 365.664062 214.875 C 364.421875 213.890625 363.105469 213.007812 361.71875 212.234375 C 360.335938 211.457031 358.898438 210.796875 357.40625 210.253906 C 355.914062 209.707031 354.390625 209.285156 352.832031 208.984375 C 351.964844 208.828125 351.09375 208.707031 350.21875 208.625 C 349.34375 208.542969 348.464844 208.5 347.582031 208.496094 C 346.703125 208.492188 345.824219 208.527344 344.949219 208.601562 C 344.070312 208.671875 343.199219 208.785156 342.332031 208.933594 C 341.464844 209.082031 340.605469 209.269531 339.753906 209.492188 C 338.902344 209.71875 338.0625 209.980469 337.234375 210.277344 C 336.40625 210.574219 335.59375 210.910156 334.792969 211.28125 C 333.996094 211.648438 333.214844 212.054688 332.449219 212.492188 C 331.6875 212.929688 330.945312 213.398438 330.222656 213.902344 C 329.5 214.40625 328.800781 214.941406 328.128906 215.503906 C 327.453125 216.070312 326.804688 216.664062 326.179688 217.285156 C 325.558594 217.90625 324.960938 218.554688 324.394531 219.226562 C 323.828125 219.902344 323.292969 220.597656 322.789062 221.316406 C 322.285156 222.039062 321.8125 222.78125 321.371094 223.542969 C 320.929688 224.304688 320.527344 225.085938 320.152344 225.882812 C 319.78125 226.679688 319.445312 227.492188 319.148438 228.320312 C 318.832031 229.175781 318.476562 230.019531 318.082031 230.84375 C 317.683594 231.664062 317.25 232.46875 316.773438 233.25 C 316.296875 234.03125 315.785156 234.785156 315.238281 235.515625 C 314.691406 236.246094 314.105469 236.949219 313.488281 237.625 C 312.871094 238.296875 312.222656 238.941406 311.542969 239.550781 C 310.863281 240.164062 310.152344 240.738281 309.417969 241.28125 C 308.679688 241.820312 307.917969 242.324219 307.132812 242.792969 C 306.347656 243.261719 305.542969 243.6875 304.714844 244.078125 C 303.886719 244.464844 303.042969 244.8125 302.179688 245.117188 C 301.320312 245.421875 300.445312 245.6875 299.558594 245.90625 C 298.667969 246.128906 297.773438 246.304688 296.871094 246.4375 C 295.964844 246.570312 295.054688 246.660156 294.144531 246.703125 C 293.230469 246.746094 292.316406 246.746094 291.402344 246.703125 C 290.488281 246.65625 289.582031 246.566406 288.675781 246.433594 C 287.773438 246.300781 286.875 246.121094 285.988281 245.902344 C 285.101562 245.679688 284.226562 245.417969 283.367188 245.109375 C 282.503906 244.804688 281.660156 244.453125 280.835938 244.066406 C 280.007812 243.675781 279.199219 243.25 278.414062 242.78125 C 277.628906 242.3125 276.867188 241.808594 276.132812 241.265625 C 275.398438 240.722656 274.6875 240.144531 274.007812 239.535156 C 273.328125 238.925781 272.679688 238.28125 272.066406 237.605469 C 271.449219 236.933594 270.867188 236.230469 270.316406 235.496094 C 269.769531 234.765625 269.257812 234.007812 268.785156 233.226562 C 268.308594 232.445312 267.875 231.644531 267.480469 230.820312 C 267.082031 229.996094 266.730469 229.15625 266.414062 228.296875 C 266.101562 227.4375 265.832031 226.566406 265.601562 225.679688 C 265.375 224.796875 265.191406 223.902344 265.050781 223 C 264.910156 222.09375 264.8125 221.1875 264.757812 220.273438 C 264.707031 219.363281 264.699219 218.449219 264.738281 217.535156 C 264.773438 216.625 264.855469 215.714844 264.980469 214.808594 C 265.105469 213.902344 265.277344 213.007812 265.492188 212.117188 C 265.703125 211.230469 265.960938 210.351562 266.261719 209.488281 C 266.855469 207.8125 267.5 206.152344 268.195312 204.515625 C 268.894531 202.878906 269.640625 201.261719 270.4375 199.671875 C 271.234375 198.078125 272.082031 196.515625 272.976562 194.976562 C 273.871094 193.4375 274.8125 191.925781 275.804688 190.445312 C 276.792969 188.964844 277.824219 187.519531 278.90625 186.101562 C 279.984375 184.6875 281.105469 183.304688 282.269531 181.957031 C 283.4375 180.613281 284.640625 179.304688 285.886719 178.03125 C 287.132812 176.761719 288.417969 175.53125 289.742188 174.339844 C 291.066406 173.148438 292.425781 172 293.820312 170.890625 C 295.214844 169.785156 296.640625 168.722656 298.101562 167.703125 C 299.5625 166.6875 301.054688 165.714844 302.574219 164.789062 C 304.097656 163.863281 305.644531 162.984375 307.21875 162.15625 C 308.796875 161.328125 310.394531 160.546875 312.019531 159.820312 C 313.644531 159.089844 315.289062 158.410156 316.957031 157.785156 C 318.621094 157.15625 320.308594 156.582031 322.007812 156.058594 C 323.710938 155.535156 325.429688 155.066406 327.160156 154.652344 C 328.890625 154.238281 330.632812 153.875 332.386719 153.566406 C 334.140625 153.261719 335.902344 153.007812 337.671875 152.808594 C 339.441406 152.613281 341.21875 152.46875 342.996094 152.382812 C 344.773438 152.292969 346.554688 152.261719 348.332031 152.285156 C 350.113281 152.308594 351.890625 152.386719 353.667969 152.519531 C 355.445312 152.65625 357.214844 152.84375 358.976562 153.085938 C 360.742188 153.332031 362.496094 153.628906 364.242188 153.984375 C 365.988281 154.335938 367.71875 154.742188 369.4375 155.203125 C 371.160156 155.664062 372.863281 156.179688 374.550781 156.746094 C 376.238281 157.3125 377.90625 157.929688 379.558594 158.601562 C 381.207031 159.269531 382.835938 159.992188 384.4375 160.765625 C 386.042969 161.535156 387.621094 162.355469 389.175781 163.226562 C 390.730469 164.097656 392.253906 165.011719 393.75 165.976562 C 395.246094 166.941406 396.714844 167.953125 398.148438 169.007812 C 399.582031 170.066406 400.980469 171.164062 402.34375 172.304688 C 403.710938 173.449219 405.039062 174.632812 406.328125 175.859375 C 407.621094 177.085938 408.875 178.347656 410.085938 179.652344 C 411.300781 180.957031 412.46875 182.296875 413.601562 183.671875 C 414.730469 185.046875 415.816406 186.457031 416.855469 187.902344 C 417.898438 189.34375 418.894531 190.820312 419.84375 192.324219 C 420.792969 193.832031 421.695312 195.363281 422.550781 196.925781 C 423.40625 198.488281 424.210938 200.074219 424.964844 201.6875 C 425.722656 203.296875 426.425781 204.933594 427.082031 206.585938 C 427.734375 208.242188 428.335938 209.917969 428.886719 211.609375 C 429.4375 213.304688 429.933594 215.011719 430.378906 216.734375 C 430.820312 218.460938 431.210938 220.195312 431.546875 221.945312 C 431.882812 223.691406 432.164062 225.449219 432.386719 227.214844 C 432.613281 228.980469 432.785156 230.75 432.902344 232.527344 C 433.019531 234.304688 433.078125 236.082031 433.082031 237.863281 C 433.089844 239.640625 433.039062 241.421875 432.933594 243.199219 C 432.828125 244.976562 432.667969 246.746094 432.453125 248.515625 C 432.238281 250.28125 431.964844 252.039062 431.640625 253.789062 C 431.316406 255.539062 430.9375 257.277344 430.503906 259.003906 C 430.070312 260.730469 429.585938 262.441406 429.042969 264.140625 C 428.503906 265.835938 427.914062 267.511719 427.269531 269.171875 C 426.625 270.832031 425.929688 272.46875 425.183594 274.085938 C 424.4375 275.703125 423.640625 277.292969 422.796875 278.859375 C 421.953125 280.429688 421.058594 281.96875 420.117188 283.476562 C 419.175781 284.988281 418.1875 286.46875 417.15625 287.917969 C 416.125 289.371094 415.046875 290.785156 413.925781 292.167969 C 412.804688 293.550781 411.640625 294.898438 410.4375 296.210938 C 409.230469 297.519531 407.984375 298.792969 406.703125 300.023438 C 405.417969 301.257812 404.097656 302.449219 402.738281 303.601562 C 401.378906 304.753906 399.988281 305.859375 398.558594 306.925781 C 397.132812 307.988281 395.671875 309.007812 394.183594 309.980469 C 392.691406 310.953125 391.171875 311.882812 389.625 312.761719 C 388.074219 313.640625 386.5 314.46875 384.902344 315.25 C 383.300781 316.03125 381.679688 316.761719 380.035156 317.445312 Z M 380.171875 317.445312 " fill-opacity="1" fill-rule="nonzero"/></g></svg>