<svg xmlns="http://www.w3.org/2000/svg" xmlns:xlink="http://www.w3.org/1999/xlink" width="500" zoomAndPan="magnify" viewBox="0 0 375 374.999991" height="500" preserveAspectRatio="xMidYMid meet" version="1.0"><defs><clipPath id="8943462c11"><path d="M 4.613281 4.613281 L 370.613281 4.613281 L 370.613281 370.613281 L 4.613281 370.613281 Z M 4.613281 4.613281 " clip-rule="nonzero"/></clipPath></defs><path fill="#dd2a7b" d="M 187.613281 147.050781 C 165.269531 147.050781 147.050781 165.269531 147.050781 187.613281 C 147.050781 209.953125 165.269531 228.171875 187.613281 228.171875 C 209.953125 228.171875 228.171875 209.953125 228.171875 187.613281 C 228.171875 165.269531 209.953125 147.050781 187.613281 147.050781 Z M 187.613281 147.050781 " fill-opacity="1" fill-rule="nonzero"/><path fill="#dd2a7b" d="M 242.113281 88.109375 L 133.109375 88.109375 C 108.390625 88.109375 88.109375 108.230469 88.109375 133.109375 L 88.109375 242.113281 C 88.109375 266.832031 108.230469 287.113281 133.109375 287.113281 L 242.113281 287.113281 C 266.832031 287.113281 287.113281 266.992188 287.113281 242.113281 L 287.113281 133.109375 C 286.953125 108.230469 266.832031 88.109375 242.113281 88.109375 Z M 187.613281 248.613281 C 153.863281 248.613281 126.453125 221.199219 126.453125 187.453125 C 126.453125 153.703125 153.863281 126.292969 187.613281 126.292969 C 221.359375 126.292969 248.769531 153.703125 248.769531 187.453125 C 248.613281 221.199219 221.199219 248.613281 187.613281 248.613281 Z M 253.046875 136.59375 C 244.96875 136.59375 238.3125 129.9375 238.3125 121.859375 C 238.3125 113.777344 244.96875 107.121094 253.046875 107.121094 C 261.128906 107.121094 267.78125 113.777344 267.78125 121.859375 C 267.78125 130.097656 261.285156 136.59375 253.046875 136.59375 Z M 253.046875 136.59375 " fill-opacity="1" fill-rule="nonzero"/><g clip-path="url(#8943462c11)"><path fill="#dd2a7b" d="M 187.613281 4.613281 C 86.527344 4.613281 4.613281 86.527344 4.613281 187.613281 C 4.613281 288.695312 86.527344 370.609375 187.613281 370.609375 C 288.695312 370.609375 370.613281 288.695312 370.613281 187.613281 C 370.453125 86.527344 288.539062 4.613281 187.613281 4.613281 Z M 307.550781 242.113281 C 307.550781 278.238281 278.082031 307.710938 241.957031 307.710938 L 133.109375 307.710938 C 96.984375 307.710938 67.511719 278.238281 67.511719 242.113281 L 67.511719 133.109375 C 67.511719 96.984375 96.984375 67.511719 133.109375 67.511719 L 242.113281 67.511719 C 278.238281 67.511719 307.710938 96.984375 307.710938 133.109375 L 307.710938 242.113281 Z M 307.550781 242.113281 " fill-opacity="1" fill-rule="nonzero"/></g></svg>